<svg width="79" height="30" viewBox="0 0 79 30" fill="none" xmlns="http://www.w3.org/2000/svg">
<path d="M6.35999 3.67999H0.439989C0.146656 3.67999 -1.09971e-05 3.51999 -1.09971e-05 3.19999V0.47999C-1.09971e-05 0.15999 0.146656 -9.53674e-06 0.439989 -9.53674e-06H14.48C16.0533 -9.53674e-06 16.84 0.759991 16.84 2.27999V3.11999C16.84 3.49332 16.6533 3.67999 16.28 3.67999H10.32V21.8C10.32 22.0933 10.1867 22.24 9.91999 22.24H6.83999C6.51999 22.24 6.35999 22.0933 6.35999 21.8V3.67999ZM21.6337 9.39999C22.0871 8.57332 22.6204 7.99999 23.2337 7.67999C23.8471 7.35999 24.7271 7.19999 25.8737 7.19999H26.3137C26.5804 7.19999 26.7137 7.35999 26.7137 7.67999V10.4C26.7137 10.72 26.5804 10.88 26.3137 10.88H25.2737C23.9671 10.88 23.0604 11.2 22.5537 11.84C22.0204 12.4533 21.7537 13.5733 21.7537 15.2V21.8C21.7537 22.0933 21.6204 22.24 21.3537 22.24H18.3537C18.1137 22.24 17.9937 22.0933 17.9937 21.8V7.67999C17.9937 7.35999 18.1137 7.19999 18.3537 7.19999H18.5537C20.2871 7.19999 21.3137 7.93332 21.6337 9.39999ZM29.9162 22.24C29.6496 22.24 29.5162 22.0933 29.5162 21.8V7.67999C29.5162 7.35999 29.6496 7.19999 29.9162 7.19999H30.1162C32.2496 7.19999 33.3162 8.33332 33.3162 10.6V21.8C33.3162 22.0933 33.1696 22.24 32.8762 22.24H29.9162ZM29.2362 3.27999C29.2362 2.63999 29.4362 2.11999 29.8362 1.71999C30.2629 1.29332 30.7829 1.07999 31.3962 1.07999C32.0096 1.07999 32.5162 1.29332 32.9162 1.71999C33.3429 2.14666 33.5562 2.66666 33.5562 3.27999C33.5562 3.89332 33.3429 4.41332 32.9162 4.83999C32.5162 5.26666 32.0096 5.47999 31.3962 5.47999C30.7829 5.47999 30.2629 5.26666 29.8362 4.83999C29.4362 4.41332 29.2362 3.89332 29.2362 3.27999ZM40.8787 20.48V28.2C40.8787 28.4933 40.7454 28.64 40.4787 28.64H37.4787C37.2387 28.64 37.1187 28.4933 37.1187 28.2V7.67999C37.1187 7.35999 37.2387 7.19999 37.4787 7.19999H37.6787C39.2521 7.19999 40.2387 7.85332 40.6387 9.15999C41.6787 7.63999 43.2521 6.87999 45.3587 6.87999C47.4387 6.87999 49.1187 7.53332 50.3987 8.83999C51.7587 10.2533 52.4387 12.2 52.4387 14.68C52.4387 16.7867 51.9321 18.5467 50.9187 19.96C49.6654 21.72 47.8921 22.6 45.5987 22.6C43.5187 22.6 41.9454 21.8933 40.8787 20.48ZM44.7587 19C45.8787 19 46.7721 18.6133 47.4387 17.84C48.1321 17.04 48.4787 15.9867 48.4787 14.68C48.4787 13.4 48.1321 12.3867 47.4387 11.64C46.7721 10.8667 45.8521 10.48 44.6787 10.48C43.4787 10.48 42.5454 10.8533 41.8787 11.6C41.2121 12.32 40.8787 13.3467 40.8787 14.68C40.8787 16.0133 41.2254 17.0667 41.9187 17.84C42.6121 18.6133 43.5587 19 44.7587 19ZM62.7075 18.4C62.7342 18.4 62.7742 18.3733 62.8275 18.32C62.9342 18.24 63.0275 18.2 63.1075 18.2C63.4008 18.2 63.5475 18.3867 63.5475 18.76C63.5475 19.9067 63.1875 20.8267 62.4675 21.52C61.7742 22.2133 60.8408 22.56 59.6675 22.56C56.9475 22.56 55.5875 20.8667 55.5875 17.48V0.47999C55.5875 0.15999 55.7208 -9.53674e-06 55.9875 -9.53674e-06H56.1875C58.3475 -9.53674e-06 59.4275 1.11999 59.4275 3.35999V17.12C59.4275 18.5067 59.9208 19.2 60.9075 19.2C61.5475 19.2 62.1475 18.9333 62.7075 18.4ZM68.82 22.6L63.46 7.67999C63.4333 7.57332 63.4467 7.46666 63.5 7.35999C63.5533 7.25332 63.62 7.19999 63.7 7.19999H64.54C65.6333 7.19999 66.4333 7.42666 66.94 7.87999C67.4467 8.30666 67.94 9.15999 68.42 10.44L70.9 17.88L74.26 7.71999C74.3933 7.37332 74.6067 7.19999 74.9 7.19999H77.86C78.1267 7.19999 78.2067 7.35999 78.1 7.67999L72.9 22.28C72.02 24.84 71.1267 26.6133 70.22 27.6C69.3133 28.5867 68.14 29.08 66.7 29.08C65.6067 29.08 64.6733 28.7333 63.9 28.04C63.1533 27.3733 62.78 26.5333 62.78 25.52C62.78 25.0133 62.94 24.76 63.26 24.76C63.34 24.76 63.46 24.8267 63.62 24.96C64.3667 25.4933 65.0867 25.76 65.78 25.76C66.5 25.76 67.0733 25.5333 67.5 25.08C67.9267 24.6267 68.3667 23.8 68.82 22.6Z" fill="url(#paint0_linear_41_421)"/>
<defs>
<linearGradient id="paint0_linear_41_421" x1="-24.5944" y1="10.24" x2="91.3267" y2="34.2485" gradientUnits="userSpaceOnUse">
<stop stop-color="#0B1A12"/>
<stop offset="0.653846" stop-color="#366F38"/>
<stop offset="0.903846" stop-color="#88B77E"/>
</linearGradient>
</defs>
</svg>
